<svg xmlns="http://www.w3.org/2000/svg" viewBox="0 0 1200 720"><rect width="1200" height="720" fill="#0b0d0c"/><g fill="none" stroke="#b8ff3d" stroke-opacity=".2"><path d="M0 120h1200M0 240h1200M0 360h1200M0 480h1200M0 600h1200M120 0v720M240 0v720M360 0v720M480 0v720M600 0v720M720 0v720M840 0v720M960 0v720M1080 0v720"/></g><rect x="72" y="70" width="1056" height="580" rx="20" fill="#111512" stroke="#b8ff3d" stroke-opacity=".35"/><text x="120" y="145" fill="#b8ff3d" font-family="Arial" font-size="22" letter-spacing="5">SERVICE SYSTEM / 01</text><text x="120" y="245" fill="white" font-family="Arial" font-size="62" font-weight="700">MEK PROPERTY</text><text x="120" y="315" fill="white" font-family="Arial" font-size="62" font-weight="700">MAINTENANCE</text><rect x="120" y="390" width="300" height="64" rx="32" fill="#b8ff3d"/><text x="178" y="432" fill="#0b0d0c" font-family="Arial" font-size="20" font-weight="700">REQUEST SERVICE →</text><circle cx="930" cy="360" r="125" fill="none" stroke="#b8ff3d" stroke-opacity=".5" stroke-width="2"/><circle cx="930" cy="360" r="72" fill="none" stroke="#b8ff3d" stroke-opacity=".7"/><path d="M930 225v270M795 360h270" stroke="#b8ff3d" stroke-opacity=".35"/></svg>